<svg version="1" xmlns="http://www.w3.org/2000/svg" width="1000" height="1000" viewBox="0 0 750.000000 750.000000"><path d="M.7.7C.3 1 0 169.8 0 375.7V750h750V0H375.7C169.8 0 1 .3.7.7zm322 48.8c5.4 3.8 6.8 17.4 2.8 26-2.9 6.2-12 14.2-22.5 20-9.2 5-11.8 7.6-15.6 15.2-.3.7.8 2.8 2.4 4.7 4.6 5.3 9.3 16 9.9 22.5.5 4.7.1 6.8-2.2 12.1-4 9.4-6.5 19.6-5.8 23.3.6 3.6 3.4 8.5 6.1 11 1.7 1.5 2.1 1.5 5.9-.4 4.8-2.3 8.1-1.9 11.4 1.7 5.1 5.4 1.7 14-6.3 16-3 .8-7.3 3.5-13.4 8.3-8.7 7.1-16.3 11.3-38.9 21.4-9.8 4.4-10 4.6-11.8 9.3-2.8 7.3-3.3 20-1.3 32.4 1.9 12 4.1 20.9 5.4 22.2.9.9 171.3-1.4 202.7-2.7 22.2-.9 24.4-1.3 26-4.6.8-1.5 1.5-3 1.5-3.2 0-.2-2.8-.7-6.2-1.1-11.8-1.2-24.7-9.7-26.8-17.8-1.3-4.5.6-13.4 3.9-18.9 2.8-4.5 2.6-8-.4-10.9-4.4-4.1-3.4-4.7 8.3-4.6 10.5.1 10.8 0 15.6-3.2 7.8-5 14.4-4.1 21.9 3.2 4.9 4.9 7.7 10.6 8.7 17.9 1.3 9 3.5 9.6 13.9 4.2 3.6-1.9 10.2-6.6 14.6-10.5 4.4-3.8 8.8-7 9.7-7 2.1 0 3.3 4 4.9 16.7 1.6 12.6.8 13.8-9.3 14.6-7.9.6-24.7 5.3-34 9.4l-5.8 2.6 4.2 5 4.2 5 10.1-.7c11.4-.8 24.1-2.2 33.2-3.7l6.2-1.1 2.7-5.6c3.6-7.5 16.8-20.7 24.9-24.9 7.1-3.7 16.5-6.3 22.7-6.3 3.5 0 4.9.6 7 2.7 3.9 4.3 4.8 6.7 4.8 13.1 0 15-14.3 29.5-32.9 33.3-3.1.6-6.1 1.3-6.8 1.4-.8.3-.6 2.4.8 7.7 9.4 35.8 5.4 72.9-11 101.3-6.7 11.6-24.5 29.2-45 44.5l-2 1.5 2.9 30c8.2 85.4 9.1 134.7 3 182.3-2 15.4-5.8 38.4-6.6 39.1-.2.2-3.7-.2-7.9-.9-5.3-.9-7.5-1.7-7.5-2.7 0-.8.9-5.8 1.9-11.1 5.4-26.5 7.4-63.4 5.2-94.3-2.4-33.5-5.2-65.9-7.1-81.9-1.8-14.9-6.3-42.9-7.6-47.2-.4-1.4-2.2-.8-11.2 3.9l-10.7 5.6-.2 7.1c-.1 3.9-.7 18.5-1.3 32.5-2.1 52-1.1 102.2 2.6 135.1 1.6 13.9 5.8 40.3 6.9 43.1.8 2-1.2 2.9-8.1 3.6l-5 .5-1.3-5.4c-7.8-33.1-11.8-54.4-14.6-78.8-3.4-30.3-7.4-80.9-8-103-.3-12.9-.8-25.1-1.1-27.1l-.6-3.6-7.2 2.2c-28.7 9.2-65.5 9.8-94.9 1.6l-6.9-1.9.6 2.2c.3 1.1 1.6 10 3 19.6 3.2 22.1 4.6 43 4.6 66.8 0 49.9-7.8 130.5-13 133.7-.7.4-13.3-3.9-14.9-5.1-.2-.2.2-1.7.8-3.5.6-1.7 1.8-11.3 2.6-21.3.9-9.9 2.3-23.5 3.1-30.1 2.2-16.4 3-58.9 1.5-76.8-2.3-27.3-6.7-51.9-14.3-79.4l-4.2-15.1-5.2-.7c-4.2-.5-19-5.1-25.5-7.9-2.8-1.2-3.9 10.5-5.4 59.6-1.9 60.6-.9 84.8 4.6 113.8 2.4 12.3 9.3 39.8 12 47.8 1 3 1.8 5.6 1.7 5.7-.8.7-10.2 4.5-11 4.5-2.3 0-13.3-30.8-19.1-53.5-6.3-24.7-8.5-38.8-10.7-70.5-1.6-23.8-3.9-72.7-4.6-100.9l-.7-26.4-7.6-7.1c-18.6-17.6-28-28.6-41.2-48.5-23.8-36-35.5-72-37.5-115.5-.7-15.2 1-52.3 3.2-67.9 4.3-31.3 17-60.2 34.9-79.5l5.5-6-7.1-6.8c-10.8-10.4-18.4-22.5-21.4-34.1-2.5-9.5.6-15.1 8.7-16 7.1-.8 12.7 1.3 17.8 6.6 3.7 3.8 5.7 7.6 10.9 20.1 3.5 8.5 6.8 15.9 7.2 16.4.5.5 3.7-.4 7.7-2.2 3.7-1.6 9.6-3.6 13-4.2 8.5-1.7 25.1-.8 32.4 1.7l5.8 2 3.1-9.8c1.7-5.4 4.7-12.6 6.8-16.1 4.2-7.3 20.9-24.6 26.1-27.1 4.4-2.1 9.9-2.2 12.7-.2z"/><path d="M313.1 54.7c-8 3.9-20.5 18.1-26.4 29.8-2.5 5.1-6.7 17.6-6.7 20.1 0 2.7 3.6 1.4 5.4-2 2.6-4.9 4.9-6.8 14.6-12.2 9.8-5.4 14.4-9.1 18.2-14.6 4.3-6.3 5-17.5 1.2-21.3-1.9-1.9-2.1-1.9-6.3.2zM176.5 69.7c-4.8 4.8 7.8 28.6 21.7 40.7 2.9 2.5 5.5 4.6 5.8 4.6.3 0 1.8-1.1 3.5-2.4l2.9-2.3-6.3-15.4c-3.5-8.5-7.4-17.1-8.8-19.2-4.1-6.4-15-9.9-18.8-6zM234 105.5c-31.5 8.7-59.6 46-68 90.3-2.6 14.2-3.8 27.6-4.6 53.4-1.4 45 4.7 75.7 21.8 109.9 13.9 27.9 29.4 48.8 52 70.3l12.2 11.7.8 25.7c1.3 48.8 4.8 109.6 7.3 131.2 3 24.7 9.9 53.5 18.6 77.2 2.3 6.2 4.3 11.5 4.5 11.7 1.6 1.7.7-3.1-3.6-20.1-9.8-38.8-12-56.7-12-99.3 0-35.7 1.6-87.4 3.1-96.5 1-6.7 3.7-16 4.6-16 .2 0 3.7 1.5 7.6 3.4 8.9 4.3 20.6 7.6 26.9 7.6 3.6 0 4.8.4 5.2 1.7 12 41.4 17.1 66.5 19.7 98.1 1.3 16.2.7 63-1.1 75.2-.6 4.1-1.7 14.9-2.5 24s-1.7 19.5-2.1 23.2c-.6 5.8-.4 6.9 1 7.4.9.4 1.9.4 2.2.1 2.1-2.1 7.3-48.8 9.4-85.2 1.3-21.9 1.3-59.2 0-76.5-1.3-17.4-4.6-40.8-7.5-52.7-1.2-5.1-2-9.3-1.7-9.3.3 0 5.3 1.5 11.1 3.4 31.7 10.2 67.2 9.9 101.1-.9 4.5-1.4 8.5-2.5 8.9-2.5 1.7 0 2.2 5.1 3.1 33.5.9 28.3 4.8 76.3 9 110 2.9 23.2 8.5 53.8 13.1 71.9 1.7 6.5 2.8 2.5 1.3-4.9-1.9-9.7-5-33.3-6.6-50-1.5-15.9-1.6-100.5-.2-138.8l.9-22.8 8.5-3.8c4.7-2 11.5-5.6 15.3-7.9 3.7-2.3 7.1-4.2 7.6-4.2.8 0 6.1 28.4 8.5 46.5 5.1 37.4 9 90.3 9 122 .1 27.3-.6 36.7-4.5 59.6-2.3 14.2-2.3 13.9 0 13.9 2.2 0 2.8-2.4 5.6-20 3.9-25.5 4.9-40.9 4.9-81 0-42-.8-55.3-6.4-114.9-1.7-17.2-3-31.7-3-32.1 0-.5 2-2 4.5-3.4 12.1-7.1 31.9-25.2 39.3-35.9 14.3-20.8 19.9-41.7 18.9-71.1-.6-16.7-2.1-26-6.3-38.1-1.3-3.8-2-7.3-1.6-7.7.5-.5 3.3-1 6.4-1.2 11.6-.9 19.3-4.2 27-11.4 6.2-5.8 9-11.2 9.1-17.3.1-6.7-2.2-9.9-7.2-9.9-14.9 0-33.7 13.1-41.4 28.7-1.7 3.4-4 6.6-5.3 7.2-3.1 1.4-20.1 3.8-35.4 5-40.3 3.3-91.6 5.2-180.9 6.6-107.3 1.8-98 2.3-100.2-5.9-6.6-24.5-7.3-45.8-1.8-58.6l2-4.7 15.2-6.8c20.8-9.3 23.6-10.8 35.6-20.2 7.3-5.7 11.4-8.3 13.3-8.3 2.5 0 5.8-2.2 5.8-3.9 0-.4-.6-1.5-1.3-2.5-1.8-2.5-5.3-1.3-6.1 1.9-.6 2.5-.7 2.5-4.4 1-7.3-3.1-13.5-11.1-14.8-19.2-.7-4.9 1.6-14.5 5.6-23.2 1.7-3.5 3-7.8 3-9.7 0-8.4-7-21-15.3-27.5-5.7-4.5-6.6-4.8-6-1.5.4 2.1 0 2.6-3.5 3.7-4.5 1.3-8.9.3-10.6-2.4-1.5-2.4.5-4 6.2-4.7l4.7-.6-4-1.3c-6.3-2-25-2.4-31.5-.6zm14 5.7c1.3 2.5 1.3 3.1 0 5.5-3.1 5.6-10 3.7-10-2.8 0-6.1 7-7.9 10-2.7zm17.1 10.8c2.6 1.4 2.4 4.5-.3 6.4-2.6 1.8-8 2.1-10.9.6-2.4-1.3-2.5-5.6-.1-6.9 2.2-1.4 8.8-1.4 11.3-.1zM215 192c0 1.1-.4 2-.9 2s-.7-.9-.4-2c.3-1.1.7-2 .9-2 .2 0 .4.9.4 2zm21 19.5c5.2 5 5.8 13.7 1.2 17.8-3.2 2.9-9.2 4.9-12.6 4.1-4.5-.9-9.1-4-10.4-6.9-1.7-3.7-1.5-9.7.4-12.4 4.8-6.8 15.6-8.1 21.4-2.6zm310.4 88.1c1.9 1.8 2.1 7.5.4 9.2-4.6 4.6-10.6-4.1-6.1-9 2-2.2 3.7-2.3 5.7-.2zM519 315.5c1.6 2 1.6 6.1 0 8-2.1 2.5-6.3 1.5-7.4-1.7-2-5.7 3.8-10.6 7.4-6.3zm16.3 9.2c.9.9 1.7 2.4 1.7 3.4 0 2.3-4.6 5.9-7.5 5.9-2.9 0-7.5-3.6-7.5-5.9 0-1.8 2.4-4.4 5-5.4 2.1-.8 6.2.2 8.3 2zm14 3.2c3.4 1.3 4.4 4.7 2.1 7.2-3.6 4-11.5.8-9.9-4.1.5-1.7 2-2.9 5.2-3.9.1-.1 1.3.3 2.6.8zm-215.9 1c.3.4-.3 1.6-1.3 2.5-1.4 1.2-2.8 1.5-5.7 1-6.2-.9-7.6 1.4-8.4 14-.6 8.3-1.1 11-2.8 13.4l-2.2 3 6.3.6c6.2.7 11.7-.3 14.3-2.5.8-.7 1.8-.9 2.1-.5 1.1 1.1-1 3.8-4.8 5.8-3.1 1.8-4.8 1.9-17.2 1.4-7.6-.3-14.3-.8-14.8-1.2-1.4-.9 3.6-4.4 6.3-4.4 4.9 0 6.8-3.8 6.8-13.5 0-12.6 6.2-20.5 16.1-20.5 2.6 0 5 .4 5.3.9zm134.6 2.9c1.3 1.1 2.3 3.3 2.7 6 .3 2.6 1.1 4.2 1.9 4.2.8 0 1.4.9 1.4 2s-.7 2-1.5 2c-1 0-1.5 1-1.5 3 0 6.2-2.2 13.4-5 16.2-3.5 3.5-6.3 3.5-9.7.2-2.2-2.3-2.5-3.2-2.1-8 .7-8.7 7-13.3 12-8.7 1.7 1.5 1.8 1.5 1.8-1 0-1.6-.7-2.8-1.9-3.2-3.1-1-7.1-5.6-7.1-8.3 0-3 2.6-6.2 5-6.2 1 0 2.8.8 4 1.8zm-84 3.6c0 2.5-.9 8.2-2 12.8-1.1 4.6-2 10.7-2 13.6 0 4.6-.3 5.3-1.7 5-2.6-.5-2.5-7.2.3-19.3 1.2-5.5 2.3-11.5 2.3-13.3.1-2.1.6-3.2 1.6-3.2 1.1 0 1.5 1.2 1.5 4.4zm144.4 11c.8 2 .6 3.2-1 5.3-2.7 3.6-3.9 3.8-6.3 1.4-2.7-2.7-2.7-7.5 0-10.2 1.8-1.8 2.3-1.9 4.2-.6 1.2.8 2.6 2.6 3.1 4.1zm-176.8 1.1c6.5 4.5 1 20.5-7 20.5-3.7 0-6.6-4.4-6.6-9.7 0-3.6.4-4.6 2-5 1.1-.3 2-1.1 2-1.9 0-1.8 4-5.4 6-5.4.8 0 2.5.7 3.6 1.5zm47.3.1c2.2 1.6 2.3 2.1 1.8 10.1-.5 8.6-2.2 12.9-3.3 8.5l-.6-2.2-2.5 2c-1.4 1.1-3.4 2-4.4 2-7.3 0-6.2-15.4 1.5-20.1 3.8-2.3 4.5-2.3 7.5-.3zm30 .1c2.3 1.5 2.3 2 1.8 10.1-.7 9.2-1.8 11.7-3.8 8.5-1.2-2-1.2-2-3-.2-2.1 2.1-4.1 2.4-7 .9-1.4-.8-1.9-2.1-1.9-5.6 0-6.1 2.2-11 6.2-13.4 4-2.4 4.7-2.5 7.7-.3zm-67.6 7.7c-.4 5.3-.2 7.5.7 8.1 2.1 1.3 5.1-2.9 7-9.6 1-4 2.2-6.4 3.1-6.4.8 0 1.3.8 1.1 2-.2 1.1-.5 5.5-.6 9.8-.3 8.5-.8 9.9-2.7 6.9-1.3-2-1.3-2-4.1.1-2.3 1.7-3.2 1.9-5.2.9-1.4-.6-2.8-2.3-3.2-3.8-.9-3.5.2-13.2 1.6-15 2.2-2.6 3-.3 2.3 7zm78.1-6.8c.6 1.6.8 1.6 2.4 0 2.4-2.1 5.6-2.1 7.3 0 2.6 3.1 1.3 18.4-1.6 18.4-1.1 0-1.3-1.7-1.2-7.8.2-6.2-.1-7.7-1.3-7.7-1.9 0-5.7 6.9-6.5 11.7-.5 2.9-1.1 3.8-2.7 3.8s-1.9-.5-1.4-2.3c2.2-9 2.7-12.7 1.7-14.5-.6-1.1-.7-2.2-.4-2.6 1.2-1.1 3.1-.6 3.7 1zm-66 53.8c1.9 1.4 4 4.2 4.6 6.2 2.7 8.2-1.2 20.6-8.1 25.5-4.4 3.1-10.8 3.6-13.9 1.1-2.1-1.7-2.5-3-2.8-9.5-.4-6.6-.7-7.6-2.7-8.7-6.7-3.6-5-13 3-16.7 4.9-2.2 15.7-1.2 19.9 2.1zm20.4 14.8c.7.7 1.2 2.4 1.2 3.9 0 3.2-4.1 6.9-7.6 6.9-3.8 0-3.7-1.8.1-3.4 1.9-.8 3.5-2.2 3.5-3 0-2.5-3.7-1.9-5.9 1-2.8 3.5-2.7 7.9.1 9.8 2 1.4 2.4 1.4 4.6 0 1.8-1.2 2.7-1.3 3.6-.4.8.9.5 1.6-1.3 3.1-2.7 2.2-5.3 2.4-8.4.8-3.2-1.7-3.7-2.8-3.7-8.3 0-4.1.5-5.3 3.4-8.2 3.6-3.6 8.1-4.5 10.4-2.2zm17 0c1.7 1.7 1.5 6.4-.4 8.2-2.1 2.2-6.3 3.1-7.7 1.7-.6-.6-.9-1.2-.6-1.3.2-.2 1.7-1 3.3-1.8 3.6-1.8 4.5-4 1.8-4-4 0-7.1 5.5-5.8 10.4.8 3.1 3.3 4 6.2 2.1 3.1-2 3.6-1.9 3.2.7-.4 2.9-5.8 4.6-9.3 3-5.3-2.4-5.6-11.8-.5-17.2 3-3.2 7.6-4 9.8-1.8zm9.6.2c2.5-1.8 6.6-1.8 6.6 0 0 .8-1.2 1.7-2.6 2-2.7.7-6.3 7.1-6.4 11.4 0 2.8-1.8 6.4-2.9 5.8-.5-.4-.7-17.2-.2-20.5.1-.2.9.3 1.9 1.2 1.5 1.3 1.9 1.4 3.6.1z"/><path d="M221.5 212.2c-7.8 4.2-7.1 14 1.1 17.4 5.7 2.4 12.4-.4 14.3-5.8 2.8-8-7.6-15.9-15.4-11.6zM463 335.8c0 2.1 3.6 5.9 4.6 4.9.4-.4.1-2-.6-3.7-1.4-3.3-4-4.1-4-1.2zM458.9 353.1c-1.2 2.3-1.5 8.1-.4 9.8 1.1 1.9 4.4 1.2 5.9-1.2.8-1.2 1.7-3.8 2.1-5.8.6-3.2.4-3.7-1.7-4.2-3.7-1.1-4.7-.8-5.9 1.4zM346.3 351.6c-.4 1 0 2 1 2.6 1 .5 1.7 1.6 1.7 2.3 0 2-3.5 1.9-5.4-.1-1.5-1.4-1.7-1.4-2.3.1-.9 2.6 1 7 3.3 7.3 2.7.4 5.4-2.7 6.1-7.2.8-5-2.8-9.1-4.4-5zM393.2 350.7c-1.7.6-5.2 7.7-5.2 10.3 0 2.8 2.8 3.7 4.4 1.5.8-1.1 2-1.6 2.9-1.2 1.3.5 1.7-.3 2.3-3.8.9-6.6-.2-8.5-4.4-6.8zM422.7 351.1c-2.1 1.2-4.7 6.7-4.7 9.9 0 2.7 2.9 3.8 4.2 1.7.5-1 1.7-1.7 2.7-1.7 1.4 0 2-1 2.4-4.2.3-2.4.1-4.8-.5-5.5-1.3-1.5-1.7-1.6-4.1-.2zM355.3 403.5c-3.9 1.7-6.2 5.8-4.7 8.3 1.7 2.6 3.4 2.6 3.4 0 0-3.8 1.1-6.8 2.6-6.8 2 0 2.4 1.3 1.4 5.3-1 4.7.3 5.5 3.5 2.3 3.1-3.1 4.5-3.3 4.5-.6 0 2.4-3.7 6-6.2 6-3.4 0-4.6 4.7-2.8 11.2 1.3 4.4 3.6 5.4 8.4 3.4 6.9-2.9 11.9-14.6 9.4-22.1-2.2-6.9-11.9-10.3-19.5-7zM477 228c-9.8 5.7-12 6.3-20.3 5.6l-7.9-.7 2.6 3.1c3.3 4 3.3 5.8-.5 12.5s-4.9 14.7-2.6 19.2c3.5 6.6 14.1 12.8 24.8 14.3 8.2 1.2 16.7-.3 24.9-4.5 9-4.5 32.2-11.5 38.2-11.5 2.6 0 5.8-.4 7.2-1 2.2-.8 2.6-1.5 2.6-5.2 0-4.5-1.6-17-2.6-20.1-.8-2.7-2.1-2.1-9.1 4.2-12.1 10.9-25.3 16.8-29.6 13.3-.8-.7-1.8-3.8-2.2-7-1.3-10.1-7.6-19.3-15.7-22.6-4.8-2-5.6-2-9.8.4zm4.4 11.6c1.9 1.8 1.9 2 .6 4.5-.6 1.1-2.1 1.9-3.5 1.9-2 0-4.5-2.4-4.5-4.4 0-1 3.2-3.6 4.5-3.6.7 0 2.1.7 2.9 1.6zm.1 18.8c5.3 2.4 13.9 10.9 13.2 12.9-.7 2.1-7.3 1.9-12.7-.4-5.5-2.4-13-9.9-13-13 0-2.7 6.2-2.5 12.5.5z"/><path d="M476.4 241.5c-.8 1.9 1.2 3.6 3.3 2.8 1.9-.7 1.2-3.7-1-4.1-.9-.2-2 .4-2.3 1.3zM491.5 282.2c-2.7.9-6.2 1.7-7.6 1.8-1.9 0-2.9.9-4.2 3.5L478 291l12.3-.6c6.7-.4 12.5-.9 12.9-1.3.3-.3-1-2.4-3-4.6l-3.7-4-5 1.7z"/></svg>